<?xml version="1.0" standalone="no"?><!DOCTYPE svg PUBLIC "-//W3C//DTD SVG 1.1//EN" "http://www.w3.org/Graphics/SVG/1.1/DTD/svg11.dtd"><svg t="1636005084246" class="icon" viewBox="0 0 1024 1024" version="1.1" xmlns="http://www.w3.org/2000/svg" p-id="2526" width="128" height="128" xmlns:xlink="http://www.w3.org/1999/xlink"><path d="M303.104 250.368h465.92c32.256 0 58.368 26.112 58.368 58.368v465.92c0 32.256-26.112 58.368-58.368 58.368h-465.92c-32.256 0-58.368-26.112-58.368-58.368v-465.92c0-32.256 26.112-58.368 58.368-58.368z" fill="#CAE4FF" p-id="2527"></path><path d="M707.584 315.904L471.04 552.448l52.224 31.232 31.232 52.224L791.552 399.36l-83.968-83.456z m41.984-41.984l83.456 83.456 20.992-20.992c11.776-11.776 11.776-30.208 0-41.984l-41.984-41.984c-11.776-11.264-30.208-11.264-41.984 0l-20.48 21.504zM429.568 593.92l-13.824 13.824V691.2h83.456l13.824-13.824-31.232-52.224-52.224-31.232z m403.456-403.456L916.48 273.92c23.04 23.04 23.04 60.416 0 83.456l-393.216 393.216H356.352V583.68l393.216-393.216c23.04-23.04 60.416-23.04 83.456 0z m-246.784-53.248c0 16.384-13.312 29.696-29.696 29.696H202.24c-16.384 0-29.696 12.8-29.696 29.184v650.24c0 16.384 13.312 29.184 29.696 29.184h649.728c16.384 0 29.696-12.8 29.696-29.184V609.28c0-16.384 13.312-29.696 29.696-29.696 16.384 0 29.696 13.312 29.696 29.696v265.728c0 32.768-26.112 58.88-58.88 59.392H172.544c-32.768 0-58.88-26.624-58.88-59.392V166.912c0-32.768 26.112-58.88 58.88-59.392h384c16.384 0 29.696 13.312 29.696 29.696z"></path></svg>