<?xml version="1.0" standalone="no"?><!DOCTYPE svg PUBLIC "-//W3C//DTD SVG 1.1//EN" "http://www.w3.org/Graphics/SVG/1.1/DTD/svg11.dtd"><svg t="1636005603308" class="icon" viewBox="0 0 1024 1024" version="1.1" xmlns="http://www.w3.org/2000/svg" p-id="5441" width="128" height="128" xmlns:xlink="http://www.w3.org/1999/xlink"><defs><style type="text/css"></style></defs><path d="M902.4 147.2H121.6C115.2 147.2 19.2 134.4 19.2 230.4v544c0 51.2 44.8 96 102.4 96h787.2c57.6 0 102.4-44.8 102.4-96V608 230.4c0 6.4 12.8-83.2-108.8-83.2z m70.4 627.2c0 25.6-38.4 64-70.4 64H121.6c-32 0-70.4-38.4-70.4-64V364.8h921.6v409.6z m0-441.6H51.2V230.4c0-6.4 6.4-44.8 38.4-51.2h851.2c25.6 0 38.4 44.8 38.4 51.2v102.4h-6.4zM108.8 544H576c6.4 0 6.4-6.4 6.4-6.4v-19.2L576 512H108.8l-6.4 6.4v19.2c0 6.4 6.4 6.4 6.4 6.4z m0 115.2h281.6c6.4 0 6.4-6.4 6.4-6.4v-19.2c0-6.4-6.4-6.4-6.4-6.4H108.8c-6.4 0-6.4 6.4-6.4 6.4v19.2c0 6.4 6.4 6.4 6.4 6.4z" fill="#2c2c2c" p-id="5442"></path><path d="M838.4 691.2h38.4l19.2-121.6s19.2 12.8 25.6 25.6c6.4 12.8 12.8 19.2 19.2 12.8 6.4 0 0-6.4 0-6.4 0-6.4-44.8-89.6-153.6-89.6-89.6 0-153.6 57.6-153.6 108.8 0 51.2 57.6 108.8 153.6 108.8 89.6 0 140.8-51.2 153.6-83.2V640s-6.4 0-19.2 12.8c-19.2 32-57.6 51.2-115.2 51.2-25.6 0-51.2-6.4-76.8-19.2h38.4c19.2 0 70.4-6.4 70.4-38.4s-44.8-32-44.8-64c0-12.8 19.2-12.8 32-12.8h25.6v-12.8h-57.6c-32 0-57.6 12.8-57.6 32 0 32 44.8 38.4 44.8 57.6 0 12.8-12.8 19.2-32 19.2s-32-12.8-32-12.8l-12.8 19.2c-19.2-12.8-32-32-32-57.6 0-51.2 76.8-76.8 121.6-76.8s70.4 12.8 83.2 19.2h-25.6l-12.8 134.4z" fill="#2c2c2c" p-id="5443"></path></svg>