<?xml version="1.0" standalone="no"?><!DOCTYPE svg PUBLIC "-//W3C//DTD SVG 1.1//EN" "http://www.w3.org/Graphics/SVG/1.1/DTD/svg11.dtd"><svg t="1635139900319" class="icon" viewBox="0 0 1032 1024" version="1.1" xmlns="http://www.w3.org/2000/svg" p-id="8180" width="129" height="128" xmlns:xlink="http://www.w3.org/1999/xlink"><defs><style type="text/css"></style></defs><path d="M272.779832 778.32605v37.431933h519.314286v-37.431933a225.021849 225.021849 0 0 0-147.146219-235.347899 179.415126 179.415126 0 0 0 77.445378-148.006722 186.729412 186.729412 0 1 0-373.028571 0 182.426891 182.426891 0 0 0 77.445378 148.006722 229.754622 229.754622 0 0 0-154.030252 235.347899z m152.309244-384.645378a111.865546 111.865546 0 1 1 33.559663 80.457143 111.865546 111.865546 0 0 1-33.559663-80.457143z m113.156302 207.811765c64.107563 0 165.216807 18.50084 183.717647 142.843697H354.527731c16.34958-124.342857 118.319328-143.27395 183.717647-143.273949z" p-id="8181"></path><path d="M971.509244 0H102.830252a61.52605 61.52605 0 0 0-60.235294 61.095798v157.042017h74.433613V75.72437h839.852101v872.121008H117.028571v-151.448739H42.594958v166.507563a61.52605 61.52605 0 0 0 60.235294 61.095798h868.678992a61.52605 61.52605 0 0 0 60.665546-61.52605v-903.529412A61.52605 61.52605 0 0 0 971.509244 0z" p-id="8182"></path><path d="M0 302.467227m30.978151 0l89.492437 0q30.978151 0 30.978151 30.978151l0 21.942857q0 30.978151-30.978151 30.978152l-89.492437 0q-30.978151 0-30.978151-30.978152l0-21.942857q0-30.978151 30.978151-30.978151Z" p-id="8183"></path><path d="M0 468.114286m38.722689 0l74.003361 0q38.722689 0 38.722689 38.722689l0 6.453781q0 38.722689-38.722689 38.722689l-74.003361 0q-38.722689 0-38.722689-38.722689l0-6.453781q0-38.722689 38.722689-38.722689Z" p-id="8184"></path><path d="M0 633.761345m38.722689 0l74.003361 0q38.722689 0 38.722689 38.722689l0 6.453781q0 38.722689-38.722689 38.722689l-74.003361 0q-38.722689 0-38.722689-38.722689l0-6.453781q0-38.722689 38.722689-38.722689Z" p-id="8185"></path></svg>